/* XPM */
static char *test1_xpm[] = {
"71 53 8 1",
"0	c #454925",
"1	c #676941",
"2	c #818257",
"3	c #98976C",
"4	c #AEAD84",
"5	c #C1C099",
"6	c #D1D1AC",
"7	c #E4E5C4",
"64566667767776677457734772376127511740274017402740174017301740164016400",
"60046214622574377567767777777677766774676357624751474137303730273036302",
"63135313620362037104710572277247746775677677767777777777667766775576556",
"66456656774676457526731671167017501730372047006600750074027203720361035",
"45202621463267447656776777777777756765776477447623751474157215621641164",
"45412631362146106501740373167237735765775577567657765776577567646755674",
"45654665576567547745762474267117502720560174027105600740271046105401620",
"21530252156226635754676677677777777776776677477447735752672366236414620",
"42652273146216612730461175147227604733762674376367537734754674475456435",
"52264257456656766775776577467437615722751472164047116403600640162044004",
"61144026115512631561374266367557767767776776777677567647745764664575355",
"65456556535644752662474166147226404702720650371074056127205502730551151",
"53115414523752674676577677677667757756754774674475366347327514622541450",
"55325414622641461273165046137327526635744753763674574376467347446524642",
"44534654664674575576477467457447627635723731651660261162054026006203301",
"32511521551262164165246347447547647757756766765775775675676567457446534",
"43553664564575475466367347437427416505614713711721641550460362163144035",
"31351251163155246257347457557657657747747746746755754754663663473354245",
"62454464365256246247337327327316416416516516615614613613612621631541440",
"62144145246346447447547657657667657657657647746736626624624722632531440",
"63145235136226326316316416426426427437427436427327427426426426515514513",
"54224425435546646647657647647647647647547547437337427326316315315314302",
"34214314314414515515516515526526437437347347346356356356366356346345235",
"33423424534645645746747646647647547547447347356256155155154154143143034",
"21411412522522623624624625526536436447346366265374365374464463363352351",
"41432443553643655644645746646647547457356366364273363362461341341231241",
"31341341441441542642734635636537447456365365464563563653642643532422521",
"52243243353453553654744745646647447456366364463563552632622612512312412",
"51132142152252351442542634625536336356364373563643644624525425325324214",
"54234244244254363564654745646646547466465464563643634524425314214124122",
"43113124133143242351442643625536436255363463554634635436335244243253132",
"43324325235245354464564655646647547465474463653634525426234143142242230",
"43203214224224143253352542624526346354363553634635436245253252341331331",
"42423424425335345364463654745646456465463553645536436244252342331421410",
"42311312313325124243252442624526336254363543635435345253342432422413312",
"52321322423424335354363553635636446364463644635346354353443422413323212",
"42331221412414325244252442634536345253352634535344252342522413224223121",
"42231231332423425335353463644636456464553645446355353443533424224233121",
"32231231322423324235253352534535345353443524434243353432324224133231120",
"33332132332423424335344353534535345353543635445354343534324333232231220",
"21332132232333434335344353534535345353543535344353332423224232242221211",
"21223131231332323334233343433535344352533434343343543424333242342321211",
"31223122132332433435344353534535344353544535343352533424233241332311211",
"21323122132242323324233253433425344343534435243332423334243332422312101",
"30222213132242333334334353433424343343534434353433534333332322422212110",
"30123212122131332324334243433435343342434334343433323232232322322112120",
"30122213223132232424334343433434343353535334343433424343332322223111020",
"30122212122132232423333243433434343343435333242423323232222313212121110",
"30121212213132232423334243333434343333424334343433334242322323122121110",
"30121212212132232323334243433434343333434343333423233232312212122111110",
"31012211213122232323323233333334333343424343343424333232323223121111100",
"31011211213122222323324233333434243333434343333323232221312112121111100",
"21011211212122122312223232323324232333323242323323232223213121121111101"
};
